<?xml version="1.0" standalone="no"?>
<!DOCTYPE svg PUBLIC "-//W3C//DTD SVG 20010904//EN"
 "http://www.w3.org/TR/2001/REC-SVG-20010904/DTD/svg10.dtd">
<svg version="1.0" xmlns="http://www.w3.org/2000/svg"
 width="16.000000pt" height="16.000000pt" viewBox="0 0 500.000000 500.000000"
 preserveAspectRatio="xMidYMid meet">
<g transform="translate(0.000000,500.000000) scale(0.100000,-0.100000)"
fill="#000000" stroke="none">
<path d="M2425 4994 c-475 -37 -779 -108 -1080 -253 -490 -235 -793 -597 -906
-1081 -30 -125 -37 -407 -15 -558 42 -284 142 -494 326 -686 284 -296 681
-471 1408 -622 73 -15 131 -30 130 -33 -2 -4 -52 -70 -112 -149 l-109 -142
-36 6 c-371 66 -742 202 -1035 381 -49 30 -92 50 -97 46 -16 -16 -598 -1346
-593 -1355 3 -4 58 -40 123 -78 388 -229 941 -388 1571 -452 194 -19 693 -16
870 6 550 67 963 231 1289 510 252 216 419 496 493 827 20 90 23 131 23 299
-1 211 -13 304 -61 455 -104 326 -340 583 -702 765 -65 33 -100 56 -95 63 11
19 127 150 290 327 152 166 445 459 605 606 l86 79 -22 31 -21 32 -85 -50
c-125 -73 -260 -161 -393 -256 -65 -46 -120 -82 -121 -80 -2 1 80 203 182 447
l185 444 -24 18 c-51 40 -351 181 -494 233 -260 94 -574 164 -895 201 -129 15
-580 27 -685 19z m1855 -1431 c-471 -478 -819 -895 -1187 -1423 -97 -139 -323
-486 -323 -495 0 -3 -30 -53 -66 -112 -161 -261 -307 -521 -471 -840 l-109
-212 -451 522 c-247 287 -479 555 -514 596 -54 63 -58 71 -32 58 16 -9 210
-118 429 -242 219 -124 401 -225 404 -225 4 0 61 75 127 168 368 509 809 1021
1275 1477 257 252 347 333 578 520 244 198 480 375 499 375 3 0 -69 -75 -159
-167z m-1310 -27 c130 -23 282 -61 403 -101 131 -44 358 -138 354 -147 -5 -17
-251 -228 -265 -228 -8 0 -45 9 -81 20 -84 25 -381 92 -531 120 -323 61 -577
132 -630 177 -80 67 8 143 200 173 87 14 442 4 550 -14z"/>
</g>
</svg>
